<svg xmlns="http://www.w3.org/2000/svg" viewBox="0 0 200 220" width="200" height="220">
  <defs>
    <radialGradient id="body" cx="50%" cy="35%" r="75%">
      <stop offset="0%" stop-color="#F4B77A"/>
      <stop offset="100%" stop-color="#DC8636"/>
    </radialGradient>
  </defs>
  <ellipse cx="100" cy="205" rx="62" ry="12" fill="#000" opacity="0.12"/>
  <path d="M100 40 C150 40 168 95 168 140 C168 185 140 205 100 205 C60 205 32 185 32 140 C32 95 50 40 100 40 Z" fill="url(#body)" stroke="#B5722B" stroke-width="3"/>
  <!-- angry brows -->
  <path d="M62 104 L92 116" stroke="#7a3b1a" stroke-width="5" stroke-linecap="round"/>
  <path d="M138 104 L108 116" stroke="#7a3b1a" stroke-width="5" stroke-linecap="round"/>
  <circle cx="80" cy="128" r="15" fill="#fff" stroke="#B5722B" stroke-width="2"/>
  <circle cx="120" cy="128" r="15" fill="#fff" stroke="#B5722B" stroke-width="2"/>
  <circle class="pupil" cx="80" cy="130" r="8" fill="#3a2a1a"/>
  <circle class="pupil" cx="120" cy="130" r="8" fill="#3a2a1a"/>
  <path d="M88 162 Q100 154 112 162" fill="none" stroke="#3a2a1a" stroke-width="3" stroke-linecap="round"/>
  <path d="M150 70 q6 -10 12 0 q6 -10 12 0 l-12 16 z" fill="#E5483A" opacity="0.85"/>
</svg>
