<svg xmlns="http://www.w3.org/2000/svg" viewBox="0 0 200 220" width="200" height="220">
  <defs>
    <radialGradient id="body" cx="50%" cy="35%" r="75%">
      <stop offset="0%" stop-color="#FBD79A"/>
      <stop offset="100%" stop-color="#EAA24A"/>
    </radialGradient>
  </defs>
  <ellipse cx="100" cy="205" rx="62" ry="12" fill="#000" opacity="0.12"/>
  <path d="M100 38 C152 38 168 92 168 138 C168 184 140 205 100 205 C60 205 32 184 32 138 C32 92 48 38 100 38 Z" fill="url(#body)" stroke="#B5722B" stroke-width="3"/>
  <circle cx="74" cy="76" r="6" fill="#fff" opacity="0.55"/>
  <!-- happy closed eyes ^ ^ -->
  <path d="M66 126 Q78 112 90 126" fill="none" stroke="#3a2a1a" stroke-width="4" stroke-linecap="round"/>
  <path d="M110 126 Q122 112 134 126" fill="none" stroke="#3a2a1a" stroke-width="4" stroke-linecap="round"/>
  <ellipse cx="60" cy="150" rx="10" ry="7" fill="#F49191" opacity="0.7"/>
  <ellipse cx="140" cy="150" rx="10" ry="7" fill="#F49191" opacity="0.7"/>
  <path d="M86 150 Q100 168 114 150" fill="#7a3b1a" stroke="#3a2a1a" stroke-width="3" stroke-linejoin="round"/>
  <path d="M150 60 l4 9 9 4 -9 4 -4 9 -4 -9 -9 -4 9 -4 z" fill="#FFE08A"/>
</svg>
